<?xml version="1.0" standalone="no"?>
<!DOCTYPE svg PUBLIC "-//W3C//DTD SVG 20010904//EN"
 "http://www.w3.org/TR/2001/REC-SVG-20010904/DTD/svg10.dtd">
<svg version="1.0" xmlns="http://www.w3.org/2000/svg"
 width="460.000000pt" height="460.000000pt" viewBox="0 0 460.000000 460.000000"
 preserveAspectRatio="xMidYMid meet">
<metadata>
Created by potrace 1.14, written by Peter Selinger 2001-2017
</metadata>
<g transform="translate(0.000000,460.000000) scale(0.100000,-0.100000)"
fill="#000000" stroke="none">
<path d="M2232 3623 c-24 -13 -54 -35 -67 -49 -17 -18 -30 -24 -42 -20 -15 6
-15 8 -3 16 13 8 13 10 -1 10 -9 0 -22 -7 -29 -15 -7 -8 -21 -15 -32 -15 -11
0 -33 -9 -48 -20 -27 -19 -64 -21 -89 -6 -5 3 -12 -2 -16 -12 -6 -16 -7 -16
-19 0 -12 16 -14 16 -34 -2 -12 -11 -26 -20 -31 -20 -5 0 -13 -9 -16 -20 -10
-32 -49 -65 -81 -68 -38 -5 -39 -6 -17 -38 18 -27 17 -28 -5 -22 -12 4 -22 2
-22 -3 0 -5 -6 -9 -12 -9 -7 -1 -26 -11 -42 -24 -16 -14 -35 -22 -43 -19 -7 3
-13 0 -13 -6 0 -6 -7 -11 -15 -11 -9 0 -15 -9 -15 -25 0 -13 -12 -41 -26 -62
-21 -32 -23 -39 -10 -41 9 -2 16 -10 16 -18 0 -17 -33 -15 -66 3 -11 7 -30 9
-42 6 -15 -3 -24 0 -28 11 -3 9 -13 16 -21 16 -11 0 -13 -7 -8 -30 6 -25 4
-29 -10 -24 -11 5 -18 0 -22 -15 -5 -18 -8 -19 -21 -9 -13 11 -15 9 -10 -14 4
-20 1 -28 -8 -28 -19 0 -17 -18 5 -46 13 -16 21 -20 24 -12 4 11 7 10 18 0 9
-9 10 -15 3 -20 -20 -13 -24 -41 -7 -50 18 -11 9 -32 -13 -32 -8 0 -14 -4 -14
-8 0 -14 23 -32 42 -32 10 0 18 -7 18 -15 0 -8 -9 -15 -20 -15 -12 0 -20 7
-20 17 0 9 -3 14 -6 10 -4 -3 -13 0 -20 8 -8 7 -19 16 -26 18 -10 4 -8 9 5 20
24 20 21 27 -12 27 -21 0 -28 5 -27 18 1 11 -5 16 -18 14 -14 -3 -18 1 -14 16
4 14 -2 28 -18 41 -13 12 -24 16 -24 10 0 -16 -35 -6 -36 11 -2 35 -5 40 -18
40 -12 0 -46 40 -46 55 0 3 12 5 27 5 l27 0 -32 31 c-24 24 -30 35 -22 45 8 9
7 15 -3 21 -8 4 -17 15 -20 23 -4 12 -6 11 -6 -3 -1 -10 -6 -15 -12 -12 -5 4
-19 -3 -30 -16 -22 -25 -24 -39 -6 -39 9 0 9 -2 -1 -8 -8 -5 -10 -16 -6 -27 5
-13 4 -16 -4 -11 -7 4 -12 2 -12 -3 0 -6 4 -11 9 -11 5 0 8 -8 7 -17 -1 -13 9
-20 34 -24 19 -4 30 -7 23 -8 -7 0 -16 -16 -21 -33 -5 -18 -14 -32 -21 -31 -6
2 -11 -2 -11 -7 0 -6 4 -10 8 -10 11 0 33 -70 26 -82 -8 -13 -50 -9 -63 6 -7
8 -11 29 -11 47 2 44 -9 108 -22 136 -6 12 -8 29 -4 38 4 11 -5 27 -24 47 -29
29 -38 48 -22 48 4 0 12 -4 17 -9 6 -5 21 -12 35 -16 22 -7 23 -6 11 9 -7 9
-22 16 -33 16 -10 0 -21 8 -24 18 -11 34 -21 46 -48 55 -32 11 -49 0 -23 -14
34 -20 18 -31 -40 -27 -55 3 -58 2 -55 -19 3 -20 -1 -23 -27 -23 -17 0 -32 3
-32 8 -1 4 -2 21 -3 37 -1 21 -7 30 -19 30 -10 0 -21 6 -25 12 -6 9 -13 6 -27
-10 -10 -12 -18 -23 -16 -25 1 -1 1 -8 -2 -15 -3 -9 -7 -9 -20 1 -23 20 -40 5
-33 -29 3 -16 1 -29 -4 -29 -5 0 -9 -12 -8 -27 2 -14 -3 -28 -10 -31 -7 -2
-19 -10 -27 -19 -13 -13 -15 -12 -16 9 0 20 -1 20 -8 5 -4 -10 -11 -18 -16
-18 -6 0 -9 -13 -7 -29 2 -17 -1 -30 -6 -30 -6 0 -8 -9 -5 -20 8 -30 -10 -24
-36 11 -23 30 -23 33 -7 59 14 25 14 29 0 41 -14 11 -18 11 -29 -4 -13 -19
-35 -23 -35 -7 0 6 12 16 28 22 37 16 37 15 21 34 -12 15 -11 16 11 9 23 -7
23 -6 -6 19 -18 14 -37 26 -43 26 -6 0 -8 7 -5 15 4 8 1 22 -6 30 -16 20 -60
20 -60 0 0 -9 -9 -15 -24 -15 -14 0 -33 -10 -43 -23 -10 -13 -24 -22 -30 -20
-7 3 -20 0 -29 -5 -14 -8 -24 -3 -47 19 -61 61 -57 160 -57 -1620 l0 -1621
139 0 c137 0 139 0 155 25 9 14 24 25 33 25 13 0 12 -5 -7 -25 l-23 -25 846 0
c673 0 845 3 841 13 -5 13 -165 134 -190 144 -9 3 -14 13 -11 24 4 14 0 19
-13 19 -23 0 -33 28 -34 102 -1 32 -4 58 -8 58 -5 0 -8 13 -8 29 0 16 -5 31
-12 33 -6 2 -13 13 -14 24 -2 10 -10 46 -19 79 -30 109 -37 159 -33 235 3 68
6 80 37 118 18 24 56 54 84 68 l50 26 -5 211 c-3 117 -2 221 3 232 7 19 8 19
8 -2 1 -13 4 -23 9 -23 4 0 16 -17 27 -37 20 -39 56 -87 112 -153 18 -20 30
-40 26 -44 -3 -3 -1 -6 5 -6 6 0 13 -13 17 -29 5 -23 14 -31 38 -37 18 -4 26
-9 20 -11 -7 -3 -13 -9 -13 -13 0 -14 45 -55 60 -55 7 0 18 -16 24 -35 6 -23
11 -29 13 -17 5 21 17 22 33 2 7 -8 21 -15 32 -15 12 0 18 -5 15 -13 -3 -8 5
-14 21 -15 32 -3 52 -19 52 -44 0 -11 4 -28 10 -38 7 -13 6 -21 -5 -30 -17
-14 -20 -40 -6 -40 6 0 3 -16 -5 -36 -18 -43 -11 -72 22 -84 14 -6 24 -18 24
-29 0 -10 7 -35 16 -56 12 -30 13 -43 4 -69 -6 -17 -15 -58 -20 -91 -8 -49 -6
-62 7 -77 9 -10 22 -18 30 -18 7 0 13 -6 13 -14 0 -15 31 -29 113 -50 39 -11
47 -11 47 0 0 8 6 14 13 15 6 0 23 2 37 3 14 2 28 -2 33 -8 5 -8 9 -8 15 0 11
16 62 27 62 13 0 -8 6 -7 18 3 9 8 25 18 35 22 11 3 21 14 24 24 7 23 93 65
93 45 0 -12 2 -12 14 0 8 8 14 20 13 28 -1 8 3 16 8 19 6 3 10 -7 11 -23 1
-15 -1 -25 -4 -22 -12 11 -30 -30 -21 -48 6 -9 7 -22 4 -27 -3 -6 -2 -10 3
-10 6 0 24 29 41 63 28 59 40 93 85 244 25 82 21 140 -15 212 -34 67 -34 81
-1 54 11 -10 29 -24 39 -31 16 -11 16 -12 1 -8 -15 5 -16 2 -6 -14 9 -14 16
-16 25 -8 10 8 13 6 13 -10 0 -11 6 -22 14 -25 8 -3 19 -21 25 -39 5 -18 17
-53 26 -78 13 -35 16 -63 11 -125 -9 -112 -31 -232 -46 -250 -7 -9 -11 -18 -8
-20 8 -9 25 17 47 70 l20 50 0 -37 c1 -35 -29 -83 -76 -123 -6 -5 -22 -30 -34
-55 -13 -25 -38 -66 -57 -92 l-34 -48 806 0 806 0 0 1185 c0 768 -3 1185 -10
1185 -5 0 -12 11 -16 25 -5 20 -9 23 -20 14 -8 -6 -26 -8 -44 -4 -19 4 -30 3
-30 -4 0 -22 -47 -12 -55 12 -6 19 -8 19 -12 5 -2 -10 -11 -18 -18 -18 -24 0
-75 34 -75 51 0 8 -7 24 -15 35 -14 19 -15 18 -21 -4 -7 -23 -9 -23 -81 -16
-62 5 -80 3 -109 -12 -26 -14 -38 -16 -52 -8 -9 6 -34 9 -55 6 -35 -4 -42 -1
-77 38 -36 40 -40 42 -55 26 -13 -13 -20 -14 -31 -5 -8 6 -14 18 -14 25 0 17
-27 19 -32 2 -3 -7 -17 2 -36 22 l-32 35 -19 -24 c-15 -20 -27 -24 -65 -24
-31 1 -46 -3 -46 -11 0 -20 -38 -49 -55 -43 -8 4 -15 11 -15 17 0 20 -55 80
-72 80 -10 0 -18 6 -18 13 0 10 -14 13 -55 9 -46 -4 -56 -2 -62 14 -4 10 -2
19 5 22 7 2 12 10 12 17 0 8 9 19 20 25 11 6 20 15 20 20 0 6 -9 10 -20 10
-13 0 -20 7 -21 20 -3 36 -4 39 -24 54 -11 8 -17 18 -13 22 4 4 3 13 -4 21 -6
8 -15 37 -19 66 -5 29 -23 81 -40 117 -18 36 -36 74 -40 85 -24 68 -53 116
-65 111 -14 -6 -57 45 -68 79 -3 11 -37 52 -76 90 -38 39 -69 76 -70 83 0 6
-3 11 -7 10 -18 -5 -73 12 -73 23 0 6 9 9 20 6 11 -3 20 -1 20 3 0 10 -37 17
-104 19 -33 1 -67 12 -100 30 -155 84 -333 111 -424 64z m48 -17 c0 -3 -4 -8
-10 -11 -5 -3 -10 -1 -10 4 0 6 5 11 10 11 6 0 10 -2 10 -4z m143 -376 c102
-28 123 -34 137 -46 8 -7 28 -16 43 -20 16 -3 32 -16 37 -28 5 -11 9 -15 9 -8
1 17 46 15 61 -3 16 -20 68 -45 94 -45 34 -1 131 -98 144 -145 16 -58 20 -95
11 -89 -5 3 -19 -6 -32 -20 -18 -19 -23 -38 -25 -86 -2 -37 2 -68 9 -77 11
-12 8 -13 -17 -7 -16 4 -37 13 -46 21 -20 18 -78 34 -138 38 -25 2 -77 6 -117
10 -63 7 -78 5 -118 -14 -26 -12 -58 -34 -71 -48 -13 -14 -39 -37 -56 -50 -33
-24 -33 -24 -5 -18 17 5 27 3 27 -4 0 -15 -43 -14 -58 1 -9 9 -12 9 -12 0 0
-23 -18 -12 -25 15 -8 32 -32 52 -63 53 -13 0 -20 4 -17 10 16 26 -296 -12
-330 -40 -28 -23 -151 -53 -148 -35 0 6 6 36 12 68 7 39 7 65 1 77 -6 10 -10
47 -10 82 0 51 5 70 25 101 14 20 30 37 35 37 6 0 10 9 10 20 0 11 4 20 8 20
4 0 32 23 61 50 29 28 60 50 67 50 8 0 18 10 23 23 14 36 60 86 100 108 33 18
49 19 184 15 81 -3 166 -10 190 -16z m-2133 -10 c0 -5 -5 -10 -11 -10 -5 0 -7
5 -4 10 3 6 8 10 11 10 2 0 4 -4 4 -10z m7 -52 c-3 -8 -6 -5 -6 6 -1 11 2 17
5 13 3 -3 4 -12 1 -19z m283 -3 c0 -9 -9 -15 -22 -15 -22 1 -23 1 -4 15 25 19
26 19 26 0z m320 -27 c0 -5 -7 -8 -15 -8 -15 0 -20 21 -8 33 7 7 23 -11 23
-25z m-432 -84 c-9 -9 -21 -13 -27 -9 -16 10 -3 25 22 25 20 0 20 -1 5 -16z
m882 -4 c0 -5 -2 -10 -4 -10 -3 0 -8 5 -11 10 -3 6 -1 10 4 10 6 0 11 -4 11
-10z m0 -29 c0 -6 -4 -13 -10 -16 -5 -3 -10 1 -10 9 0 9 5 16 10 16 6 0 10 -4
10 -9z m437 -495 c-9 -7 -17 -24 -17 -37 0 -13 -5 -31 -11 -39 -8 -11 -9 -4
-4 29 5 40 32 77 45 64 3 -2 -3 -10 -13 -17z m597 -48 c24 -25 48 -104 47
-153 0 -27 3 -45 7 -38 10 16 8 -67 -3 -90 -5 -12 -2 -24 10 -37 18 -20 13
-40 -11 -40 -8 0 -14 -4 -14 -10 0 -5 -17 -8 -37 -6 -21 2 -55 -3 -76 -10 -20
-7 -44 -11 -52 -8 -8 4 -15 1 -15 -5 0 -11 -51 -41 -71 -41 -17 0 -3 60 21 85
11 12 28 46 39 77 11 31 25 67 32 79 7 13 16 37 20 54 9 37 42 126 52 143 5 6
15 12 23 12 9 0 21 -6 28 -12z m-674 -47 c0 -6 -4 -13 -10 -16 -5 -3 -10 1
-10 9 0 9 5 16 10 16 6 0 10 -4 10 -9z m115 -75 c9 -11 18 -20 20 -18 12 6 26
1 20 -8 -3 -5 9 -19 29 -30 19 -12 37 -28 40 -36 4 -10 14 -13 31 -9 14 3 37
7 51 10 24 6 25 5 10 -10 -26 -27 -7 -39 21 -13 19 16 27 19 30 10 3 -8 9 -10
16 -4 18 14 79 24 72 12 -9 -14 9 -12 23 2 7 7 12 9 12 5 0 -18 -92 -79 -125
-82 -5 -1 -18 -5 -27 -9 -48 -22 -180 18 -226 67 -28 31 -62 98 -62 123 0 17
5 20 25 16 14 -2 32 -14 40 -26z m-86 -45 c33 -69 112 -145 162 -156 15 -4 38
-15 51 -26 12 -11 35 -23 50 -26 16 -3 28 -12 28 -20 0 -16 -100 -116 -108
-108 -8 8 -41 -41 -55 -83 -17 -48 -9 -112 17 -141 24 -26 19 -44 -17 -62 -17
-9 -39 -28 -47 -43 -13 -24 -13 -28 0 -36 13 -9 13 -12 -2 -24 -10 -7 -18 -18
-18 -25 0 -22 -38 27 -50 65 -7 21 -21 52 -31 69 -11 16 -19 38 -19 47 0 24
-21 68 -33 68 -5 0 -20 -11 -33 -25 -50 -54 -104 -19 -104 70 -1 27 -7 68 -15
90 -18 49 -19 76 -3 72 12 -2 21 18 39 92 l10 44 35 -34 c19 -18 34 -37 34
-43 0 -5 -12 -22 -27 -38 -16 -17 -29 -44 -33 -73 -6 -41 -5 -45 12 -39 10 3
26 0 35 -8 15 -12 16 -8 9 40 -7 57 4 85 29 76 11 -5 14 19 14 125 -1 129 4
164 23 189 17 20 23 15 47 -37z m1249 -36 c1 -19 6 -44 11 -54 6 -10 8 -21 5
-24 -3 -3 -1 -14 4 -23 7 -12 7 -25 1 -36 -7 -13 -6 -18 5 -18 8 0 16 6 19 13
2 6 2 3 -1 -8 -5 -21 -9 -60 -11 -108 -1 -18 -6 -27 -13 -24 -7 2 -13 14 -12
26 0 11 -3 21 -8 21 -4 0 -8 -6 -8 -14 0 -25 -19 -28 -46 -7 -22 17 -42 23
-124 34 -26 4 -80 29 -80 38 0 4 5 11 10 14 6 4 8 10 5 15 -3 4 1 8 8 7 37 -1
90 5 79 10 -9 4 -10 8 -2 18 9 11 6 12 -12 8 -13 -3 5 9 40 27 34 17 62 36 62
41 0 5 6 9 13 9 7 0 21 16 31 35 11 19 20 35 21 35 1 0 2 -16 3 -35z m-84 -16
c-9 -10 -22 -15 -30 -12 -8 3 -14 0 -14 -6 0 -20 -66 -41 -124 -41 -46 0 -54
3 -50 15 4 10 13 13 26 9 10 -3 24 -1 31 4 17 13 67 21 67 11 0 -5 5 -9 10 -9
14 0 12 27 -2 33 -7 3 1 3 18 0 17 -3 34 -1 37 4 3 5 15 9 26 9 18 0 19 -2 5
-17z m-1391 -44 c-3 -9 -8 -14 -10 -11 -3 3 -2 9 2 15 9 16 15 13 8 -4z m1544
-87 c-3 -7 -5 -2 -5 12 0 14 2 19 5 13 2 -7 2 -19 0 -25z m-557 2 c0 -5 -4
-10 -10 -10 -5 0 -10 5 -10 10 0 6 5 10 10 10 6 0 10 -4 10 -10z m-993 -42
c-3 -7 -5 -2 -5 12 0 14 2 19 5 13 2 -7 2 -19 0 -25z m1550 -35 c-3 -10 -5 -4
-5 12 0 17 2 24 5 18 2 -7 2 -21 0 -30z m-200 -19 c-3 -3 -12 -4 -19 -1 -8 3
-5 6 6 6 11 1 17 -2 13 -5z m200 -56 c-3 -8 -6 -5 -6 6 -1 11 2 17 5 13 3 -3
4 -12 1 -19z m-870 -11 c4 -8 16 -17 27 -20 17 -7 16 -9 -7 -27 -14 -11 -28
-20 -32 -20 -4 0 -20 -15 -36 -32 -28 -32 -29 -33 -35 -10 -4 12 -10 22 -15
22 -4 0 -1 12 7 28 7 15 14 34 14 43 0 9 3 19 7 22 11 12 62 7 70 -6z m1005
-22 c-4 -17 -14 -30 -22 -30 -8 0 -16 -10 -18 -22 -2 -16 2 -23 12 -23 16 0
21 -26 10 -54 -9 -24 -27 -19 -57 16 -41 46 -49 65 -32 72 8 3 15 12 15 21 0
17 25 21 35 5 9 -15 42 6 50 31 10 30 15 19 7 -16z m1263 -35 c0 -13 -6 -25
-12 -27 -9 -3 -13 6 -13 27 0 21 4 30 13 28 6 -3 12 -15 12 -28z m-1395 -40
c0 -11 -2 -20 -4 -20 -2 0 -6 9 -9 20 -3 11 -1 20 4 20 5 0 9 -9 9 -20z m1080
10 c0 -5 -5 -10 -11 -10 -5 0 -7 5 -4 10 3 6 8 10 11 10 2 0 4 -4 4 -10z m-50
-19 c0 -5 -9 -7 -20 -4 -11 3 -20 7 -20 9 0 2 9 4 20 4 11 0 20 -4 20 -9z
m-20 -41 c13 -8 12 -11 -5 -24 -27 -20 -35 -20 -35 2 0 31 14 39 40 22z
m-1966 -120 c13 0 31 -9 40 -19 17 -18 83 -38 93 -27 3 3 -2 12 -11 21 -38 39
7 49 63 14 18 -11 39 -18 46 -15 7 2 26 1 42 -4 20 -6 23 -9 8 -9 -11 -1 -38
-6 -59 -12 -29 -8 -36 -13 -25 -20 12 -7 12 -9 -1 -10 -8 -1 -23 -1 -32 0 -10
1 -18 -3 -18 -10 0 -7 -14 -24 -30 -38 l-30 -26 16 -37 c18 -38 48 -58 88 -58
12 0 31 -6 42 -14 19 -14 19 -15 1 -49 -14 -26 -24 -33 -38 -30 -10 3 -19 1
-19 -5 0 -5 -9 -12 -20 -15 -15 -4 -20 0 -20 13 0 18 -2 18 -36 4 -20 -8 -37
-14 -38 -12 -1 2 -8 16 -16 32 -14 28 -15 28 -20 6 -5 -21 -7 -22 -22 -7 -9
10 -14 25 -11 37 4 16 0 23 -16 27 -11 3 -21 9 -21 13 0 4 -10 10 -21 13 -20
5 -21 7 -5 22 13 14 14 20 5 32 -18 21 -22 173 -5 173 8 0 20 7 27 16 8 10 15
12 17 5 2 -6 14 -11 26 -11z m1786 -4 c0 -26 -24 -51 -40 -41 -5 3 -10 19 -10
36 0 24 4 29 25 29 20 0 25 -5 25 -24z m272 -38 c-9 -9 -12 -7 -12 12 0 19 3
21 12 12 9 -9 9 -15 0 -24z m-29 -4 c-8 -22 -32 -17 -26 5 3 11 11 17 18 14 8
-2 11 -11 8 -19z m182 -164 c3 -4 -2 -13 -10 -20 -17 -14 -9 -40 12 -40 12 0
14 -8 10 -37 -5 -28 -4 -34 4 -20 8 14 39 25 39 14 0 -14 -35 -70 -47 -74 -7
-3 -13 -13 -11 -22 1 -9 -6 -30 -15 -48 -21 -40 -21 -43 3 -43 21 0 27 -15 10
-25 -6 -4 -7 -11 -4 -17 5 -7 2 -8 -6 -3 -7 4 -16 2 -21 -6 -11 -19 -469 -25
-481 -6 -4 7 -8 74 -8 149 l0 136 69 16 c82 19 263 44 341 48 30 2 67 4 82 5
15 1 30 -2 33 -7z m-2680 -30 c56 0 63 -2 68 -22 10 -36 -8 -55 -45 -50 -18 3
-35 8 -38 13 -3 4 -18 10 -34 13 -33 6 -31 4 -41 35 -6 20 -4 23 10 18 9 -4
45 -7 80 -7z m1325 -102 c0 -16 -3 -19 -11 -11 -6 6 -8 16 -5 22 11 17 16 13
16 -11z m-2299 -35 c-8 -15 -10 -15 -11 -2 0 17 10 32 18 25 2 -3 -1 -13 -7
-23z m1047 -83 l3 -90 -33 7 c-18 3 -37 12 -41 20 -4 7 -14 13 -21 13 -20 0
-26 23 -10 44 7 11 11 23 8 27 -3 5 0 9 6 9 6 0 25 14 42 30 16 17 33 30 36
30 4 0 8 -41 10 -90z m-1078 56 c-5 -15 -5 -37 0 -55 8 -27 6 -31 -12 -31 -14
0 -18 5 -14 15 3 9 0 15 -10 15 -10 0 -14 6 -10 15 3 8 -2 18 -10 23 -13 7 -9
12 18 25 44 22 49 21 38 -7z m2343 -135 c-6 -10 -11 7 -13 44 -4 76 4 100 9
30 3 -38 5 -72 4 -74z m-2378 30 c-6 -5 -21 -12 -35 -16 -22 -7 -23 -6 -11 9
7 9 23 16 34 16 13 0 17 -4 12 -9z m1005 -105 c0 -2 -7 -7 -16 -10 -8 -3 -12
-2 -9 4 6 10 25 14 25 6z m1735 -166 c-7 -12 -65 -14 -65 -2 0 4 16 9 36 10
23 2 33 -1 29 -8z m-20 -30 c3 -5 1 -10 -4 -10 -6 0 -11 5 -11 10 0 6 2 10 4
10 3 0 8 -4 11 -10z m-941 -25 c17 -16 26 -34 26 -56 0 -27 -2 -30 -15 -19 -8
7 -15 20 -15 29 0 9 -10 21 -22 26 -26 11 -37 45 -15 45 8 0 26 -11 41 -25z
m1676 -209 c0 -8 -4 -18 -10 -21 -5 -3 -10 -4 -10 -1 0 2 -3 11 -6 20 -4 11
-1 16 10 16 9 0 16 -6 16 -14z m60 -6 c-12 -23 -30 -27 -30 -7 0 17 10 27 27
27 11 0 11 -5 3 -20z m-1093 -85 c-7 -24 -13 -31 -19 -23 -11 18 -10 40 2 33
6 -3 10 1 10 9 0 9 4 16 9 16 5 0 4 -15 -2 -35z m713 9 c0 -8 -5 -12 -10 -9
-6 4 -8 11 -5 16 9 14 15 11 15 -7z m-2200 -39 c0 -8 -71 -35 -79 -30 -4 2
-18 -14 -30 -36 -13 -22 -25 -38 -28 -36 -2 3 6 23 19 46 17 29 32 43 58 50
42 11 60 13 60 6z m1462 -37 c-6 -25 -22 -12 -22 18 0 20 2 23 13 12 8 -7 12
-20 9 -30z m858 13 c0 -18 -17 -20 -36 -6 -18 14 -18 14 9 15 15 0 27 -4 27
-9z m-870 -57 c0 -8 -4 -12 -10 -9 -5 3 -10 10 -10 16 0 5 5 9 10 9 6 0 10 -7
10 -16z m-1424 -40 c-4 -9 -9 -15 -11 -12 -3 3 -3 13 1 22 4 9 9 15 11 12 3
-3 3 -13 -1 -22z m-394 -17 c11 -17 -1 -27 -32 -27 -34 0 -46 14 -28 34 14 16
48 11 60 -7z m2268 -8 c0 -6 -4 -7 -10 -4 -5 3 -10 11 -10 16 0 6 5 7 10 4 6
-3 10 -11 10 -16z m-2680 -43 c0 -18 -46 -36 -88 -34 -39 1 -34 7 21 30 52 21
67 22 67 4z m3317 -36 c38 -34 20 -42 -21 -9 -24 19 -34 39 -20 39 4 0 22 -13
41 -30z m-3593 -44 c-10 -8 -21 -12 -23 -10 -3 2 4 11 15 18 10 8 21 12 23 10
3 -2 -4 -11 -15 -18z m81 14 c-3 -5 -11 -10 -16 -10 -6 0 -7 5 -4 10 3 6 11
10 16 10 6 0 7 -4 4 -10z m525 -39 c0 -12 -20 -25 -27 -18 -7 7 6 27 18 27 5
0 9 -4 9 -9z m-654 -71 c-20 -22 -36 -34 -36 -28 0 16 60 81 67 74 3 -3 -11
-24 -31 -46z m-57 -80 c-6 -17 -15 -30 -20 -30 -5 0 -3 14 6 30 9 17 17 30 20
30 2 0 -1 -13 -6 -30z m3956 -51 c-8 -12 -32 -12 -40 1 -3 6 1 7 9 4 9 -3 16
-1 16 6 0 6 5 8 10 5 6 -4 8 -11 5 -16z"/>
<path d="M2962 2160 c0 -14 2 -19 5 -12 2 6 2 18 0 25 -3 6 -5 1 -5 -13z"/>
<path d="M2785 2220 c4 -6 11 -8 16 -5 14 9 11 15 -7 15 -8 0 -12 -5 -9 -10z"/>
<path d="M2120 1940 c0 -5 5 -10 10 -10 6 0 10 5 10 10 0 6 -4 10 -10 10 -5 0
-10 -4 -10 -10z"/>
<path d="M4070 1314 c0 -21 13 -57 25 -72 2 -2 13 5 24 15 13 11 21 29 21 50
0 31 -2 33 -35 33 -31 0 -35 -3 -35 -26z"/>
<path d="M4300 1330 c0 -5 4 -10 9 -10 6 0 13 5 16 10 3 6 -1 10 -9 10 -9 0
-16 -4 -16 -10z"/>
<path d="M1610 3345 c0 -8 5 -15 10 -15 6 0 10 7 10 15 0 8 -4 15 -10 15 -5 0
-10 -7 -10 -15z"/>
<path d="M1645 3350 c-3 -5 1 -10 10 -10 9 0 13 5 10 10 -3 6 -8 10 -10 10 -2
0 -7 -4 -10 -10z"/>
<path d="M3086 3267 c3 -10 9 -15 12 -12 3 3 0 11 -7 18 -10 9 -11 8 -5 -6z"/>
<path d="M996 3261 c-4 -7 -5 -15 -2 -18 9 -9 19 4 14 18 -4 11 -6 11 -12 0z"/>
<path d="M1100 3099 c0 -18 26 -33 41 -23 5 3 9 10 9 17 0 8 -3 8 -12 -1 -9
-9 -14 -7 -24 6 -12 15 -13 15 -14 1z"/>
<path d="M3343 2653 c-13 -2 -23 -8 -23 -13 0 -17 28 -17 66 1 38 18 39 18 9
17 -16 0 -40 -3 -52 -5z"/>
<path d="M1770 932 c-33 -10 -81 -68 -95 -114 -12 -40 -12 -58 0 -127 8 -44
19 -88 24 -98 5 -10 12 -26 15 -36 3 -10 10 -16 15 -13 10 6 4 44 -10 61 -4 6
-6 42 -3 80 3 39 6 90 7 115 1 25 5 50 9 55 4 6 20 25 34 43 28 35 29 42 4 34z"/>
<path d="M1730 520 c0 -5 5 -10 10 -10 6 0 10 5 10 10 0 6 -4 10 -10 10 -5 0
-10 -4 -10 -10z"/>
</g>
</svg>
